<?xml version="1.0" encoding="iso-8859-1"?>
<!-- Uploaded to: SVG Repo, www.svgrepo.com, Generator: SVG Repo Mixer Tools -->
<!DOCTYPE svg PUBLIC "-//W3C//DTD SVG 1.1//EN" "http://www.w3.org/Graphics/SVG/1.1/DTD/svg11.dtd">
<svg fill="#000000" version="1.1" id="Capa_1" xmlns="http://www.w3.org/2000/svg" xmlns:xlink="http://www.w3.org/1999/xlink" 
	 width="800px" height="800px" viewBox="0 0 29.271 29.271"
	 xml:space="preserve">
<g>
	<g>
		<path d="M29.271,2.622H0V23.97h10.521l-4.175,1.756v0.924H22.57v-0.924l-4.174-1.756h10.875V2.622z M26.968,20.442H2.305V5.539
			h24.663V20.442z"/>
		<path d="M7.076,16.72h1.829l0.242,0.822h1.836l-2.094-5.75H7.157l-2.118,5.75h1.78L7.076,16.72z M8.02,13.716h0.016l0.516,1.771
			H7.464L8.02,13.716z"/>
		<path d="M16.749,12.904c0.239-0.075,0.456-0.186,0.644-0.331c0.188-0.144,0.34-0.326,0.455-0.543
			c0.115-0.219,0.174-0.471,0.174-0.761c0-0.21-0.027-0.395-0.084-0.555c-0.058-0.162-0.133-0.3-0.223-0.415
			c-0.092-0.116-0.197-0.211-0.318-0.288c-0.121-0.074-0.244-0.132-0.375-0.175c0.215-0.119,0.389-0.263,0.517-0.436
			c0.13-0.171,0.194-0.403,0.194-0.693c0-0.145-0.024-0.302-0.072-0.471c-0.051-0.168-0.143-0.325-0.279-0.471
			c-0.136-0.144-0.324-0.265-0.562-0.358c-0.238-0.093-0.547-0.141-0.922-0.141h-3.149v5.751h3.263
			C16.259,13.016,16.506,12.979,16.749,12.904z M14.518,8.635h0.934c0.183,0,0.329,0.029,0.438,0.088
			c0.109,0.06,0.166,0.161,0.166,0.306c0,0.188-0.055,0.314-0.162,0.379c-0.106,0.065-0.254,0.097-0.442,0.097h-0.934V8.635z
			 M15.557,11.647h-1.039v-1.071h1.111c0.413,0,0.621,0.175,0.621,0.524c0,0.112-0.02,0.203-0.059,0.273
			c-0.037,0.07-0.088,0.125-0.151,0.167c-0.063,0.039-0.14,0.067-0.224,0.084C15.734,11.638,15.646,11.647,15.557,11.647z"/>
		<path d="M19.884,17.308c0.25,0.27,0.554,0.481,0.915,0.637c0.359,0.156,0.771,0.234,1.239,0.234c0.419,0,0.793-0.07,1.12-0.209
			c0.326-0.14,0.604-0.324,0.824-0.553c0.225-0.229,0.393-0.484,0.509-0.77c0.114-0.283,0.173-0.571,0.173-0.862h-1.739
			c-0.026,0.135-0.063,0.263-0.108,0.379c-0.047,0.118-0.105,0.222-0.176,0.308c-0.072,0.084-0.162,0.151-0.267,0.201
			c-0.106,0.047-0.233,0.072-0.386,0.072c-0.209,0-0.383-0.046-0.521-0.137c-0.139-0.092-0.252-0.213-0.334-0.362
			c-0.083-0.151-0.145-0.319-0.183-0.508c-0.037-0.188-0.056-0.379-0.056-0.572s0.019-0.383,0.056-0.572
			c0.038-0.188,0.1-0.358,0.183-0.507c0.082-0.151,0.195-0.271,0.334-0.363c0.139-0.092,0.312-0.138,0.521-0.138
			c0.184,0,0.334,0.036,0.449,0.105c0.114,0.069,0.207,0.15,0.275,0.241c0.071,0.091,0.119,0.185,0.146,0.278
			c0.027,0.094,0.045,0.167,0.058,0.222h1.724c-0.076-0.726-0.328-1.286-0.761-1.68c-0.435-0.395-1.047-0.595-1.842-0.6
			c-0.445,0-0.847,0.072-1.204,0.218c-0.355,0.144-0.662,0.349-0.918,0.611c-0.254,0.263-0.451,0.579-0.588,0.95
			s-0.204,0.783-0.204,1.232c0,0.424,0.063,0.818,0.192,1.188C19.445,16.722,19.634,17.04,19.884,17.308z"/>
	</g>
</g>
</svg>